#!OML:ASF X:\für Bonn\!DataBase\2005_08_11_Bastian_Final\c3d\Bastian.ASF
:FULLY-SPECIFIED
:DEGREES
200
root -1.74167 16.5913 -2.32615 534.303 41.8284 -174.692
lowerback 30.304 -6.27623 2.87073
upperback 18.4807 -3.0451 4.7869
thorax 4.40564 0.10034 4.35454
lowerneck -17.157 -12.4704 -20.3536
upperneck -8.42774 -12.5875 34.0922
head 4.78476 -4.60532 13.6256
rclavicle 9.54166e-015 -6.59965e-014
rhumerus -25.8087 5.47065 -81.2283
rradius 38.4261
rwrist 4.42375
rhand -13.9746 4.22353
rfingers 7.12502
rthumb 12.1536 -25.4034
lclavicle 9.54166e-015 -6.59965e-014
lhumerus -3.85045 -38.1602 95.6295
lradius 63.9546
lwrist 5.02791
lhand -17.543 -8.77622
lfingers 7.12502
lthumb 8.71132 21.024
rfemur -29.5783 3.21967 21.1259
rtibia 38.2711
rfoot -11.8122 -3.72759
rtoes -29.9315
lfemur 16.0035 0.70524 -11.966
ltibia 40.2719
lfoot -21.2097 -5.47302
ltoes -27.9872
201
root -1.63772 16.5992 -2.3896 534.338 41.8187 -174.754
lowerback 30.3476 -6.35897 3.02575
upperback 18.5152 -3.08615 4.83318
thorax 4.4246 0.0985719 4.33419
lowerneck -17.3206 -12.4954 -20.3898
upperneck -8.42643 -12.5847 33.9916
head 4.7989 -4.59094 13.5876
rclavicle 7.15625e-015 -3.97569e-014
rhumerus -25.6019 5.57814 -81.0523
rradius 39.1053
rwrist 4.85793
rhand -14.2162 4.32857
rfingers 7.12502
rthumb 11.9206 -25.3121
lclavicle 7.15625e-015 -3.97569e-014
lhumerus -4.01098 -37.9644 95.6598
lradius 63.8926
lwrist 4.86805
lhand -17.5478 -8.83717
lfingers 7.12502
lthumb 8.70676 20.9633
rfemur -29.5547 2.98544 21.2656
rtibia 38.7467
rfoot -11.7172 -3.52452
rtoes -30.0825
lfemur 16.1096 0.631772 -11.8805
ltibia 40.5232
lfoot -20.3823 -5.46764
ltoes -28.4526
202
root -1.53043 16.608 -2.45377 534.375 41.7687 -174.824
lowerback 30.344 -6.44262 3.19032
upperback 18.5387 -3.13486 4.87158
thorax 4.44915 0.09245 4.30083
lowerneck -17.433 -12.5096 -20.3998
upperneck -8.41905 -12.5823 33.895
head 4.80504 -4.58213 13.547
rclavicle 4.85035e-014 -9.70069e-014
rhumerus -25.4032 5.63077 -80.9094
rradius 39.7357
rwrist 5.3138
rhand -14.5641 4.4649
rfingers 7.12502
rthumb 11.5851 -25.1949
lclavicle 4.85035e-014 -9.70069e-014
lhumerus -4.20013 -37.7787 95.6809
lradius 63.7563
lwrist 4.69909
lhand -17.5575 -8.97698
lfingers 7.12502
lthumb 8.69737 20.8238
rfemur -29.4994 2.79341 21.3843
rtibia 39.1867
rfoot -11.6248 -3.41137
rtoes -30.2656
lfemur 16.1853 0.520905 -11.7992
ltibia 40.8038
lfoot -19.5521 -5.43954
ltoes -29.1493
203
root -1.42059 16.6194 -2.51753 534.407 41.6982 -174.921
lowerback 30.3167 -6.52623 3.31908
upperback 18.5551 -3.19836 4.91015
thorax 4.47751 0.0739898 4.28922
lowerneck -17.4924 -12.5111 -20.4365
upperneck -8.44924 -12.5568 33.8188
head 4.79054 -4.56719 13.5263
rclavicle -3.65764e-014 1.90833e-014
rhumerus -25.2211 5.68332 -80.7739
rradius 40.3826
rwrist 5.79627
rhand -14.9172 4.58652
rfingers 7.12502
rthumb 11.2446 -25.0921
lclavicle -3.65764e-014 1.90833e-014
lhumerus -4.37212 -37.523 95.7089
lradius 63.5481
lwrist 4.51537
lhand -17.5291 -9.12436
lfingers 7.12502
lthumb 8.72481 20.6753
rfemur -29.423 2.65468 21.4786
rtibia 39.5883
rfoot -11.5334 -3.36007
rtoes -30.3799
lfemur 16.2275 0.394312 -11.7248
ltibia 41.1287
lfoot -18.649 -5.44448
ltoes -29.6566
204
root -1.31616 16.6313 -2.58086 534.421 41.6223 -175.019
lowerback 30.3252 -6.62 3.47659
upperback 18.5692 -3.26066 4.94999
thorax 4.48809 0.0601791 4.26461
lowerneck -17.5356 -12.5165 -20.4828
upperneck -8.48556 -12.5374 33.7349
head 4.7728 -4.55744 13.5031
rclavicle -8.74653e-015 7.15625e-015
rhumerus -25.0277 5.74738 -80.6166
rradius 41.0276
rwrist 6.22127
rhand -15.2447 4.72605
rfingers 7.12502
rthumb 10.9287 -24.9695
lclavicle -8.74653e-015 7.15625e-015
lhumerus -4.47906 -37.249 95.718
lradius 63.2724
lwrist 4.35666
lhand -17.4056 -9.34252
lfingers 7.12502
lthumb 8.84392 20.4522
rfemur -29.3211 2.43795 21.5665
rtibia 39.9553
rfoot -11.4745 -3.25953
rtoes -30.53
lfemur 16.2339 0.212517 -11.7055
ltibia 41.5033
lfoot -17.7163 -5.39689
ltoes -30.247
205
root -1.21576 16.6442 -2.64319 534.397 41.5403 -175.179
lowerback 30.3938 -6.71877 3.64442
upperback 18.532 -3.33205 4.9441
thorax 4.41607 0.040841 4.18851
lowerneck -17.5359 -12.4942 -20.4679
upperneck -8.50788 -12.4991 33.648
head 4.74213 -4.54288 13.4717
rclavicle 4.21423e-014 2.94201e-014
rhumerus -24.8948 5.80329 -80.5292
rradius 41.6776
rwrist 6.55261
rhand -15.597 4.82602
rfingers 7.12502
rthumb 10.5889 -24.8872
lclavicle 4.21423e-014 2.94201e-014
lhumerus -4.64132 -36.9697 95.706
lradius 62.9583
lwrist 4.18647
lhand -17.2602 -9.53924
lfingers 7.12502
lthumb 8.98425 20.2495
rfemur -29.2172 2.16729 21.5913
rtibia 40.2837
rfoot -11.3951 -3.06188
rtoes -30.5341
lfemur 16.1889 -0.000491484 -11.7669
ltibia 41.9473
lfoot -16.7464 -5.3008
ltoes -30.9872
206
root -1.11579 16.6579 -2.70342 534.389 41.4496 -175.311
lowerback 30.4516 -6.81749 3.78184
upperback 18.5143 -3.40625 4.96361
thorax 4.37273 0.0177573 4.15658
lowerneck -17.5601 -12.4775 -20.4761
upperneck -8.52037 -12.4636 33.5493
head 4.71886 -4.52754 13.439
rclavicle 4.77083e-015 -1.15295e-013
rhumerus -24.7216 5.88819 -80.4404
rradius 42.2876
rwrist 6.90289
rhand -15.9808 4.92338
rfingers 7.12502
rthumb 10.2186 -24.8084
lclavicle 4.77083e-015 -1.15295e-013
lhumerus -4.79465 -36.5639 95.7029
lradius 62.6041
lwrist 3.98244
lhand -17.0982 -9.80504
lfingers 7.12502
lthumb 9.14056 19.9769
rfemur -29.0913 1.86836 21.6447
rtibia 40.5852
rfoot -11.3524 -2.85978
rtoes -30.4521
lfemur 16.0967 -0.240857 -11.7993
ltibia 42.4689
lfoot -15.7541 -5.26133
ltoes -31.663
